{"title":"Cars 2 2011 CAM XViD V2 - IMAGiNE","uid":6496967,"size":1495388361,"categoryP":"video","categoryS":"movies","magnet":"?xt=urn:btih:e4e8df0788a302c163534e24a2b9fceb1c3eb3d4&amp;dn=Cars+2+2011+CAM+XViD+V2+-+IMAGiNE&amp;tr=udp%3A%2F%2Ftracker.openbittorrent.com%3A80&amp;tr=udp%3A%2F%2Fopen.demonii.com%3A1337&amp;tr=udp%3A%2F%2Ftracker.coppersurfer.tk%3A6969&amp;tr=udp%3A%2F%2Fexodus.desync.com%3A6969","seeders":1,"leechers":0,"uploader":"TvTeam","files":5,"time":1309109617,"description":". \n  &lt;a href=&quot;\nhttp://www.torrenting.com/&quot; rel=&quot;nofollow&quot; target=&quot;_NEW&quot;&gt;\nhttp://www.torrenting.com/&lt;/a&gt;        :     Greatest Movie Tracker on The Net!!!\n &lt;a href=&quot;\nhttp://www.Torrenting.com&quot; rel=&quot;nofollow&quot; target=&quot;_NEW&quot;&gt;\nhttp://www.Torrenting.com&lt;/a&gt;          :     Once &amp; For all ;)\n\n\n               www . Torrenting . Com \n\n(((((((((((((= Enjoy No RAR releases =))))))))))))))))))))\n\n\n...................................NFO:....................................\n\n.      *********** ****    ****      ***      ******** *********** ****    *** **********\n           *+*     +*+*+* *+*+*+   *+* *+*   *+*    *+*    *+*     *+*+*   *+* *+*        \n           +*+     +*+ +*+*+ +*+  +*+   +*+  +*+           +*+     *+*+*+  +*+ +*+        \n           +$+     +$+  +*+  +$+ +$++*++$++* *$*           +$+     +$+ +*+ +$+ +$++*++$  \n           +$+     +$+       +$+ +$+     +$+ +$+   +$+$    +$+     +$+  +$+$+$ +$+        \n           $+$     $+$       $+$ $+$     $+$ $+$    $+$    $+$     $+$   $+$+$ $+$        \n       $$$$$$$$$$$ $$$       $$$ $$$     $$$  $$$$$$$$ $$$$$$$$$$$ $$$    $$$$ $$$$$$$$$$     \n                                                \n\n\n\n                           Another Fine Release Brought to you from - IMAGiNE                   \n                                                 \n\n********************************************************************************************************************                                \n                                   Cars 2 2011 CAM XViD V2 - IMAGiNE\n********************************************************************************************************************\n\nRipper ...........: IMAGiNE                                      IMDB Rating.......: 6.6/10                             \nVideo Codec.......: XVID                                         Release Date......: 26/06/11\nAudio Codec.......: MP3                                          Theatre Date......: 24/06/11\nAudio Bitrate.....: 128                                          Runtime.......: 1h 34mn\nSubtitles.........: ENG WHEN NEEDED                              Language..........: ENGLISH\nResolution......: 720 x 304                                      IMDb URL..........: http://www.imdb.com/title/tt1216475/\n\n\n[color=yellow]DETAILS:[/color]\n\nVideo\nID                               : 0\nFormat                           : MPEG-4 Visual\nFormat profile                   : Advanced Simple@L5\nFormat settings, BVOP            : 2\nFormat settings, QPel            : No\nFormat settings, GMC             : No warppoints\nFormat settings, Matrix          : Default (MPEG)\nMuxing mode                      : Packed bitstream\nCodec ID                         : XVID\nCodec ID/Hint                    : XviD\nDuration                         : 1h 34mn\nBit rate                         : 1 945 Kbps\nWidth                            : 720 pixels\nHeight                           : 304 pixels\nDisplay aspect ratio             : 2.35:1\nFrame rate                       : 25.000 fps\nColor space                      : YUV\nChroma subsampling               : 4:2:0\nBit depth                        : 8 bits\nScan type                        : Progressive\nCompression mode                 : Lossy\nBits/(Pixel*Frame)               : 0.355\nStream size                      : 1.28 GiB (93%)\nWriting library                  : XviD 61\n\nAudio\nID                               : 1\nFormat                           : MPEG Audio\nFormat version                   : Version 1\nFormat profile                   : Layer 3\nMode                             : Joint stereo\nMode extension                   : MS Stereo\nCodec ID                         : 55\nCodec ID/Hint                    : MP3\nDuration                         : 1h 34mn\nBit rate mode                    : Constant\nBit rate                         : 128 Kbps\nChannel(s)                       : 2 channels\nSampling rate                    : 44.1 KHz\nCompression mode                 : Lossy\nStream size                      : 86.6 MiB (6%)\nAlignment                        : Split accross interleaves\nInterleave, duration             : 40 ms (1.00 video frame)\nInterleave, preload duration     : 500 ms\nWriting library                  : LAME3.98r\nEncoding settings                : -m j -V 4 -q 2 -lowpass 17 -b 128\n\n\n\n\n\n[color=yellow]SOURCES:[/color]\n\nVIDEO: ........................... Cars2.TS.DVD.RELIZLAB Thanx Mate :P\nAUDIO: ........................... CARS.2.iPhoneCAM-FU.Its.Free Thanx Matey :D\n\n[color=yellow]NOTES:[/color]\n\nIMAGiNE bringing you another release..........\nCars 2 CAM............\nOk heres our first go at Cars 2.........\nVideo is very nice, thanks to RELIZLAB for the source files :D\nFirst we made a script to crop rotate and resize........\nNext we adjusted the RGB chroma and brightness \nran a light smoother over then sharpened it up a bit :P\nThere is one line of text which we hardcoded subs in green\nAudio is decent cam audio we took from the FU release \nsynced and remuxed to our encode\nEnjoy Folks!\n\nV2 = AR corrected folks,sorry about the last one :(\n\n[color=yellow]SCREENS:[/color]\n\n\n[color=yellow]GREETS:[/color]\n\nFLAWL3SS,ViSiON,FUSiON,Rx,SecretMyth,BirdFlu,ELEKTRI4KA,SERENiTY and Autotron\nAnd to all the other p2p grps past and present \n\n\n[COLOR=RED]Looking for these,syncers,cammers,silver supplier,Audio.....Have anything to offer????......\nContact us &lt;a class=&quot;__cf_email__&quot; href=&quot;/cdn-cgi/l/email-protection&quot; data-cfemail=&quot;b8d1d5d9dfd1d6dddfcad7cdc8f8d0cdcbd0d5d9d1d496dbd7d5&quot;&gt;[email&amp;#160;protected]&lt;/a&gt;&lt;script cf-hash='f9e31' type=&quot;text/javascript&quot;&gt;\n/* &lt;![CDATA[ */!function(){try{var t=&quot;currentScript&quot;in document?document.currentScript:function(){for(var t=document.getElementsByTagName(&quot;script&quot;),e=t.length;e--;)if(t[e].getAttribute(&quot;cf-hash&quot;))return t[e]}();if(t&amp;&amp;t.previousSibling){var e,r,n,i,c=t.previousSibling,a=c.getAttribute(&quot;data-cfemail&quot;);if(a){for(e=&quot;&quot;,r=parseInt(a.substr(0,2),16),n=2;a.length-n;n+=2)i=parseInt(a.substr(n,2),16)^r,e+=String.fromCharCode(i);e=document.createTextNode(e),c.parentNode.replaceChild(e,c)}}}catch(u){}}();/* ]]&gt; */&lt;/script&gt;[/COLOR]","torrent":{"xt":"urn:btih:e4e8df0788a302c163534e24a2b9fceb1c3eb3d4","amp;dn":"Cars+2+2011+CAM+XViD+V2+-+IMAGiNE","amp;tr":["udp%3A%2F%2Ftracker.openbittorrent.com%3A80","udp%3A%2F%2Fopen.demonii.com%3A1337","udp%3A%2F%2Ftracker.coppersurfer.tk%3A6969","udp%3A%2F%2Fexodus.desync.com%3A6969"],"infoHash":"e4e8df0788a302c163534e24a2b9fceb1c3eb3d4","infoHashBuffer":{"type":"Buffer","data":[228,232,223,7,136,163,2,193,99,83,78,36,162,185,252,235,28,62,179,212]},"announce":[],"urlList":[]}}